<svg id="svg" version="1.1" xmlns="http://www.w3.org/2000/svg" xmlns:xlink="http://www.w3.org/1999/xlink" width="400" height="400" viewBox="0, 0, 400,400"><g id="svgg"><path id="path0" d="M165.800 101.683 C 140.301 107.761,130.733 131.314,143.734 156.000 C 148.697 165.424,150.663 167.651,153.409 166.962 L 154.341 166.728 153.594 164.985 C 143.558 141.574,162.198 119.237,186.518 125.531 C 192.677 127.125,199.303 132.728,202.625 139.151 C 203.676 141.183,204.800 141.365,204.800 139.502 C 204.800 138.006,210.477 131.486,213.726 129.251 C 227.644 119.675,247.581 124.964,254.317 140.019 C 260.141 153.036,256.370 166.122,241.630 184.048 C 240.194 185.795,240.520 185.560,243.365 182.800 C 258.996 167.635,270.029 147.940,269.992 135.269 C 269.983 132.125,268.973 126.246,268.022 123.800 C 257.253 96.098,219.604 93.203,206.224 119.049 C 203.936 123.468,203.684 123.609,202.561 121.103 C 196.414 107.396,179.443 98.430,165.800 101.683 M157.480 220.712 C 156.786 221.479,156.577 223.448,157.106 224.240 C 158.294 226.020,161.249 225.452,161.778 223.343 C 162.372 220.980,159.067 218.958,157.480 220.712 M205.000 220.764 C 198.723 222.517,195.820 226.831,195.825 234.400 C 195.830 243.800,200.293 248.294,209.257 247.927 C 215.394 247.675,217.886 246.107,215.871 243.764 L 214.941 242.684 213.064 243.784 C 206.870 247.413,200.820 242.517,200.804 233.862 C 200.789 225.584,206.164 221.629,213.037 224.860 C 214.024 225.323,214.880 225.634,214.941 225.551 C 215.002 225.468,215.445 224.881,215.926 224.246 C 217.100 222.696,217.071 222.616,214.994 221.639 C 212.988 220.696,207.090 220.180,205.000 220.764 M132.909 221.900 C 133.019 222.505,134.581 227.230,136.381 232.400 C 138.180 237.570,139.991 242.830,140.406 244.088 C 141.572 247.630,141.852 248.000,143.365 248.000 C 145.126 248.000,145.199 247.882,147.340 241.600 C 148.352 238.630,150.277 233.050,151.618 229.200 C 154.668 220.442,154.614 221.000,152.413 221.000 L 150.626 221.000 147.590 230.000 C 145.920 234.950,144.404 239.090,144.220 239.200 C 143.745 239.485,143.571 239.047,140.796 230.600 C 137.435 220.366,137.694 220.800,134.944 220.800 C 132.724 220.800,132.711 220.807,132.909 221.900 M169.745 224.298 C 169.495 224.464,168.991 225.318,168.626 226.195 C 167.882 227.980,166.519 229.600,165.759 229.600 C 163.824 229.600,163.711 231.719,165.632 232.000 L 167.000 232.200 167.200 238.873 C 167.454 247.347,167.656 247.740,171.844 247.916 C 175.044 248.049,176.270 247.481,175.822 246.070 C 175.601 245.373,175.236 245.200,173.987 245.200 C 171.816 245.200,171.600 244.575,171.600 238.306 C 171.600 232.448,171.757 232.000,173.816 232.000 C 174.772 232.000,175.182 231.758,175.533 230.987 C 176.067 229.815,175.889 229.691,173.400 229.514 L 171.800 229.400 171.800 226.800 C 171.800 224.138,171.159 223.358,169.745 224.298 M182.600 229.547 C 179.304 230.404,178.263 231.513,179.354 233.004 C 179.926 233.786,179.946 233.785,181.776 232.897 C 185.371 231.150,187.600 232.035,187.600 235.209 C 187.600 237.071,187.014 237.600,184.953 237.600 C 179.153 237.600,175.353 243.291,178.831 246.769 C 180.482 248.421,184.094 248.544,186.588 247.035 L 188.176 246.073 189.114 247.085 C 190.190 248.247,193.514 248.257,194.669 247.103 C 195.470 246.301,194.701 244.653,193.676 244.972 C 192.314 245.395,192.104 244.681,191.924 239.000 C 191.651 230.411,189.125 227.850,182.600 229.547 M224.400 229.551 C 220.952 230.304,219.936 231.339,221.161 232.851 L 221.922 233.791 223.516 232.896 C 226.916 230.984,229.600 232.159,229.600 235.560 C 229.600 236.977,228.710 237.600,226.686 237.600 C 220.694 237.600,217.130 243.192,220.790 246.851 C 222.409 248.471,226.037 248.516,228.409 246.947 L 230.001 245.893 230.829 246.947 C 231.755 248.123,233.925 248.381,235.781 247.536 C 237.255 246.864,236.928 244.358,235.440 244.929 C 233.784 245.565,233.600 244.983,233.600 239.112 C 233.600 230.398,231.329 228.038,224.400 229.551 M240.058 229.525 C 238.379 229.646,238.327 229.689,238.614 230.725 C 238.777 231.316,239.021 235.400,239.155 239.800 L 239.400 247.800 241.200 247.800 L 243.000 247.800 243.111 242.289 L 243.223 236.777 244.811 235.189 C 245.826 234.174,246.766 233.600,247.413 233.600 C 248.493 233.600,248.600 233.430,248.987 231.100 C 249.216 229.722,249.160 229.600,248.297 229.600 C 247.323 229.600,244.000 231.792,244.000 232.435 C 244.000 233.401,243.259 232.638,243.034 231.440 C 242.707 229.699,242.199 229.371,240.058 229.525 M256.365 229.558 C 249.221 231.889,248.460 243.762,255.234 247.218 C 258.233 248.747,265.621 247.946,265.587 246.095 C 265.554 244.288,264.533 243.778,262.847 244.726 C 259.207 246.771,255.200 244.515,255.200 240.420 L 255.200 239.200 260.320 239.200 C 266.207 239.200,266.400 239.106,266.400 236.255 C 266.400 231.257,261.395 227.917,256.365 229.558 M157.124 229.900 C 157.056 230.065,157.090 234.160,157.200 239.000 L 157.400 247.800 159.300 247.922 L 161.200 248.044 161.200 238.822 L 161.200 229.600 159.224 229.600 C 158.137 229.600,157.192 229.735,157.124 229.900 M261.604 233.300 C 263.203 235.922,262.673 236.400,258.167 236.400 C 254.667 236.400,254.331 235.818,256.441 233.414 C 258.184 231.429,260.433 231.380,261.604 233.300 M187.461 240.615 C 187.591 240.953,187.443 241.898,187.133 242.715 C 185.816 246.181,181.290 245.682,182.172 242.169 C 182.592 240.496,186.927 239.222,187.461 240.615 M229.365 240.653 C 229.736 241.619,228.358 244.125,227.137 244.704 C 225.037 245.700,222.979 243.908,224.009 241.983 C 224.896 240.325,228.861 239.341,229.365 240.653 M146.240 261.669 C 145.698 262.920,144.351 266.546,143.851 268.100 C 143.585 268.924,142.400 269.049,142.400 268.253 C 142.400 267.731,141.347 264.875,140.132 262.100 C 138.729 258.898,138.000 260.301,138.000 266.200 C 138.000 269.533,138.153 271.600,138.400 271.600 C 138.636 271.600,138.803 270.163,138.806 268.100 C 138.813 264.097,139.286 262.724,140.007 264.614 C 140.823 266.752,142.066 270.186,142.282 270.900 C 142.581 271.890,143.498 271.769,143.800 270.700 C 144.156 269.441,145.592 265.580,146.107 264.500 C 146.916 262.801,147.200 263.606,147.200 267.600 C 147.200 270.073,147.357 271.600,147.611 271.600 C 148.240 271.600,147.942 260.713,147.308 260.502 C 147.038 260.412,146.557 260.938,146.240 261.669 M151.391 260.880 C 151.272 261.189,151.226 263.773,151.287 266.621 L 151.400 271.800 154.160 271.920 C 155.721 271.987,157.103 271.857,157.340 271.620 C 157.633 271.327,157.024 271.200,155.323 271.200 C 152.687 271.200,152.400 270.964,152.400 268.800 C 152.400 266.769,152.745 266.400,154.643 266.400 C 155.609 266.400,156.400 266.220,156.400 266.000 C 156.400 265.780,155.609 265.600,154.643 265.600 C 152.748 265.600,152.400 265.230,152.400 263.216 C 152.400 261.726,153.032 261.281,155.410 261.098 L 157.400 260.944 155.133 260.872 C 153.886 260.832,152.582 260.691,152.236 260.558 C 151.879 260.421,151.513 260.560,151.391 260.880 M160.145 260.999 C 160.051 261.243,160.026 263.773,160.087 266.621 L 160.200 271.800 162.266 271.920 C 167.361 272.215,170.497 267.643,168.220 263.240 C 167.178 261.223,160.744 259.438,160.145 260.999 M177.679 261.047 C 175.664 262.074,175.036 263.693,175.158 267.547 C 175.258 270.724,180.126 273.258,182.623 271.433 C 183.598 270.719,183.147 270.186,182.061 270.768 C 179.799 271.978,177.192 270.629,176.413 267.847 C 175.260 263.728,178.195 260.230,181.690 261.558 C 182.312 261.795,182.865 261.818,182.992 261.612 C 183.630 260.581,179.463 260.138,177.679 261.047 M195.801 260.854 C 195.676 261.178,195.626 263.773,195.687 266.621 L 195.800 271.800 198.155 271.922 C 201.423 272.090,202.477 271.493,199.400 271.216 L 197.000 271.000 196.887 266.007 C 196.782 261.388,196.362 259.392,195.801 260.854 M209.679 261.047 C 207.664 262.074,207.036 263.693,207.158 267.547 C 207.258 270.724,212.126 273.258,214.623 271.433 C 215.598 270.719,215.147 270.186,214.061 270.768 C 211.799 271.978,209.192 270.629,208.413 267.847 C 207.260 263.728,210.195 260.230,213.690 261.558 C 214.312 261.795,214.865 261.818,214.992 261.612 C 215.630 260.581,211.463 260.138,209.679 261.047 M217.736 261.021 C 217.647 261.253,217.626 263.773,217.687 266.621 L 217.800 271.800 220.358 271.921 C 223.883 272.087,224.934 271.489,221.600 271.214 L 219.000 271.000 218.880 268.700 L 218.760 266.400 220.580 266.400 C 221.581 266.400,222.400 266.220,222.400 266.000 C 222.400 265.780,221.590 265.600,220.600 265.600 L 218.800 265.600 218.800 263.608 C 218.800 261.411,218.892 261.342,222.200 261.092 C 223.251 261.013,222.788 260.908,220.848 260.786 C 218.983 260.668,217.837 260.755,217.736 261.021 M226.675 260.658 C 226.228 261.106,226.348 271.600,226.800 271.600 C 227.042 271.600,227.200 269.867,227.200 267.200 C 227.200 261.735,227.293 261.735,230.898 267.190 C 234.765 273.040,234.732 273.054,234.482 265.702 C 234.292 260.095,233.600 259.406,233.600 264.824 C 233.600 269.242,233.583 269.240,230.400 264.508 C 227.866 260.740,227.240 260.094,226.675 260.658 M238.800 260.785 L 237.000 261.047 238.400 261.223 L 239.800 261.400 240.000 266.600 C 240.164 270.867,240.308 271.800,240.800 271.800 C 241.292 271.800,241.436 270.867,241.600 266.600 L 241.800 261.400 243.200 261.153 L 244.600 260.905 243.133 260.853 C 242.326 260.824,241.426 260.738,241.133 260.662 C 240.840 260.586,239.790 260.642,238.800 260.785 M247.264 261.000 C 247.118 261.220,247.089 263.740,247.200 266.600 L 247.400 271.800 250.300 271.918 C 252.038 271.988,253.200 271.875,253.200 271.637 C 253.200 271.417,252.075 271.185,250.700 271.119 L 248.200 271.000 248.200 268.800 L 248.200 266.600 250.100 266.478 C 251.145 266.411,252.000 266.196,252.000 266.000 C 252.000 265.804,251.145 265.589,250.100 265.522 L 248.200 265.400 248.079 263.513 C 247.943 261.401,248.054 261.325,251.600 261.094 C 252.987 261.004,252.727 260.933,250.465 260.788 C 248.733 260.677,247.420 260.764,247.264 261.000 M255.953 261.056 C 255.450 261.663,255.680 271.573,256.200 271.701 C 256.425 271.757,256.652 270.716,256.719 269.321 C 256.922 265.074,258.447 265.374,261.321 270.225 C 262.077 271.501,262.574 271.986,262.847 271.713 C 263.119 271.441,262.852 270.679,262.026 269.376 C 260.590 267.112,260.512 266.384,261.600 265.400 C 262.601 264.494,262.656 262.352,261.700 261.500 C 260.838 260.731,256.499 260.396,255.953 261.056 M171.289 266.267 C 171.450 274.214,172.400 274.356,172.400 266.433 C 172.400 261.646,172.308 260.800,171.789 260.800 C 171.265 260.800,171.193 261.581,171.289 266.267 M188.151 261.500 C 188.028 261.885,187.773 262.560,187.585 263.000 C 186.646 265.195,184.768 271.301,184.970 271.503 C 185.318 271.851,185.621 271.414,186.198 269.730 C 186.710 268.234,186.770 268.197,188.891 268.082 L 191.060 267.964 191.600 269.682 C 192.227 271.681,192.580 272.183,193.121 271.849 C 193.452 271.644,190.595 262.486,189.797 261.195 C 189.402 260.556,188.393 260.742,188.151 261.500 M166.355 262.602 C 169.338 265.496,167.128 271.200,163.024 271.200 C 161.320 271.200,161.200 270.860,161.200 266.047 C 161.200 260.991,163.270 259.608,166.355 262.602 M260.662 262.051 C 262.293 263.405,260.969 265.600,258.520 265.600 L 256.800 265.600 256.800 263.633 C 256.800 262.442,256.997 261.581,257.300 261.450 C 257.992 261.150,260.011 261.512,260.662 262.051 M189.945 264.760 C 190.668 266.920,190.553 267.200,188.949 267.200 L 187.498 267.200 187.766 265.520 C 188.250 262.497,189.091 262.204,189.945 264.760 " stroke="none" fill="#217dcb" fill-rule="evenodd" data-index="0"></path><path id="path2" d="M173.200 124.801 C 155.775 127.144,146.243 146.443,153.492 164.700 C 154.594 167.475,155.446 167.805,158.772 166.744 C 164.361 164.961,164.155 165.503,164.400 151.925 L 164.600 140.851 165.712 139.691 C 167.212 138.127,169.757 137.600,175.814 137.600 C 189.837 137.600,190.960 138.785,190.988 153.600 C 191.011 166.395,190.939 166.335,206.513 166.379 C 218.990 166.414,218.400 165.627,218.400 182.240 L 218.400 194.772 217.200 196.139 C 215.443 198.140,213.812 198.400,203.029 198.400 L 193.613 198.400 192.306 199.567 C 191.055 200.686,190.994 200.876,190.861 204.128 C 190.699 208.070,190.298 207.481,196.239 212.041 C 202.660 216.969,203.364 217.367,204.544 216.735 C 206.702 215.579,216.492 208.058,221.600 203.631 C 222.150 203.154,223.796 201.737,225.257 200.482 C 245.022 183.506,256.800 165.402,256.800 152.000 C 256.800 124.627,221.862 113.989,206.480 136.678 C 205.556 138.041,204.800 139.312,204.800 139.502 C 204.800 141.365,203.676 141.183,202.625 139.151 C 197.024 128.322,186.215 123.050,173.200 124.801 " stroke="none" fill="#54dbbc" fill-rule="evenodd" data-index="2"></path><path id="path3" d="M164.400 101.240 C 150.601 104.864,142.122 113.058,137.947 126.800 C 137.201 129.255,137.203 140.283,137.950 143.000 C 139.219 147.619,141.119 152.646,142.674 155.500 C 148.355 165.928,149.999 168.013,152.500 167.972 C 155.559 167.921,156.080 167.259,153.085 167.228 L 150.371 167.200 147.972 163.500 C 132.790 140.085,134.769 118.496,153.190 106.579 C 170.424 95.431,195.131 102.685,202.774 121.137 C 203.496 122.880,204.222 122.718,205.157 120.605 C 219.146 88.980,267.909 98.322,269.854 133.000 C 270.692 147.934,258.386 169.856,239.562 186.965 C 238.373 188.045,235.240 191.019,232.600 193.572 C 227.389 198.613,224.452 201.308,222.639 202.712 C 222.000 203.207,221.556 203.690,221.652 203.785 C 221.819 203.952,223.997 202.110,231.000 195.879 C 245.758 182.748,258.616 167.356,265.256 154.869 C 273.710 138.974,271.665 121.184,260.144 110.408 C 242.889 94.266,216.259 98.574,205.182 119.300 C 203.674 122.122,203.677 122.122,202.200 119.106 C 198.352 111.247,190.270 104.450,181.900 102.033 C 181.075 101.795,179.802 101.420,179.072 101.200 C 177.432 100.706,166.316 100.737,164.400 101.240 M172.900 137.897 C 174.605 137.972,177.395 137.972,179.100 137.897 C 180.805 137.822,179.410 137.761,176.000 137.761 C 172.590 137.761,171.195 137.822,172.900 137.897 M165.775 139.700 L 164.600 141.000 165.900 139.825 C 167.112 138.730,167.384 138.400,167.075 138.400 C 167.006 138.400,166.421 138.985,165.775 139.700 M164.573 151.400 C 164.573 156.900,164.630 159.205,164.699 156.523 C 164.768 153.841,164.768 149.341,164.699 146.523 C 164.630 143.705,164.574 145.900,164.573 151.400 M190.940 149.200 C 190.940 151.070,191.009 151.835,191.093 150.900 C 191.177 149.965,191.177 148.435,191.093 147.500 C 191.009 146.565,190.940 147.330,190.940 149.200 M190.528 156.800 C 190.528 158.230,190.601 158.815,190.689 158.100 C 190.778 157.385,190.778 156.215,190.689 155.500 C 190.601 154.785,190.528 155.370,190.528 156.800 M216.794 168.203 C 218.387 170.121,218.521 170.245,218.086 169.396 C 217.859 168.953,217.252 168.234,216.737 167.798 C 215.833 167.034,215.835 167.048,216.794 168.203 M199.300 198.299 C 201.885 198.368,206.115 198.368,208.700 198.299 C 211.285 198.229,209.170 198.172,204.000 198.172 C 198.830 198.172,196.715 198.229,199.300 198.299 M190.460 204.676 C 190.427 206.258,190.535 207.636,190.700 207.739 C 190.865 207.841,190.949 206.997,190.886 205.862 C 190.682 202.184,190.521 201.737,190.460 204.676 M159.200 219.895 C 160.749 220.080,161.983 220.981,162.032 221.962 C 162.054 222.417,162.124 222.448,162.274 222.071 C 162.671 221.080,160.792 219.594,159.230 219.664 L 157.800 219.728 159.200 219.895 M156.623 220.889 C 155.914 221.900,155.829 223.121,156.406 224.000 C 156.685 224.427,156.727 224.226,156.550 223.305 C 156.382 222.427,156.514 221.686,156.960 221.005 C 157.773 219.764,157.481 219.664,156.623 220.889 M204.200 220.400 C 203.696 220.617,203.622 220.744,204.000 220.744 C 204.330 220.744,204.960 220.589,205.400 220.400 C 205.904 220.183,205.978 220.056,205.600 220.056 C 205.270 220.056,204.640 220.211,204.200 220.400 M132.173 220.926 C 132.062 221.215,132.159 221.890,132.388 222.426 C 132.763 223.303,132.781 223.271,132.570 222.100 L 132.336 220.800 134.948 220.800 C 137.014 220.800,137.646 220.946,137.968 221.500 C 138.192 221.885,138.381 222.011,138.388 221.780 C 138.427 220.444,132.662 219.652,132.173 220.926 M149.992 221.214 C 149.741 221.684,149.623 222.157,149.731 222.264 C 149.839 222.372,150.046 222.087,150.190 221.630 C 150.549 220.500,154.220 220.390,154.548 221.500 C 154.708 222.045,154.736 222.023,154.673 221.400 C 154.547 220.153,150.643 219.998,149.992 221.214 M200.960 221.946 C 200.102 222.576,198.952 223.611,198.405 224.246 C 197.700 225.065,197.874 224.975,199.005 223.939 C 199.882 223.136,201.230 222.101,202.000 221.641 C 202.770 221.180,203.202 220.802,202.960 220.801 C 202.718 220.801,201.818 221.316,200.960 221.946 M215.641 221.739 C 216.388 222.256,216.951 222.899,216.890 223.169 C 216.830 223.439,216.965 223.545,217.190 223.406 C 217.897 222.969,217.645 222.493,216.253 221.633 C 214.416 220.497,213.959 220.577,215.641 221.739 M162.000 223.518 C 162.000 223.766,161.595 224.347,161.100 224.809 C 160.415 225.449,160.370 225.584,160.911 225.378 C 161.699 225.077,162.597 223.664,162.232 223.299 C 162.105 223.171,162.000 223.270,162.000 223.518 M170.800 223.953 C 172.171 224.195,172.198 224.237,172.122 226.000 L 172.043 227.800 172.415 226.019 C 172.838 223.988,172.528 223.584,170.600 223.659 C 169.437 223.704,169.443 223.713,170.800 223.953 M205.861 224.300 C 205.758 224.465,206.827 224.540,208.237 224.466 C 210.402 224.353,211.088 224.492,212.650 225.366 C 214.958 226.655,214.867 226.663,215.954 225.100 L 216.858 223.800 215.805 224.950 L 214.752 226.101 212.822 225.050 C 210.916 224.013,206.346 223.520,205.861 224.300 M204.352 225.203 C 203.996 225.411,203.383 226.081,202.990 226.691 C 202.356 227.674,202.441 227.641,203.733 226.400 C 205.508 224.696,205.633 224.455,204.352 225.203 M196.581 226.837 C 196.229 227.518,196.012 228.145,196.099 228.232 C 196.186 228.319,196.556 227.762,196.922 226.995 C 197.744 225.270,197.459 225.138,196.581 226.837 M167.061 227.867 C 166.654 228.410,165.934 229.011,165.461 229.202 C 164.897 229.429,164.816 229.558,165.225 229.575 C 165.853 229.600,168.291 227.352,167.971 227.043 C 167.877 226.953,167.467 227.323,167.061 227.867 M172.101 228.800 C 172.208 229.199,172.881 229.441,174.106 229.521 C 175.295 229.599,176.015 229.850,176.134 230.229 C 176.253 230.606,176.296 230.563,176.256 230.108 C 176.208 229.567,175.771 229.370,174.403 229.272 C 173.419 229.202,172.461 228.932,172.276 228.672 C 172.043 228.346,171.989 228.385,172.101 228.800 M181.800 229.200 C 180.781 229.638,181.832 229.638,183.200 229.200 C 184.004 228.943,184.043 228.877,183.400 228.868 C 182.960 228.862,182.240 229.011,181.800 229.200 M195.400 230.000 C 195.248 230.691,195.207 231.341,195.309 231.442 C 195.411 231.544,195.609 231.053,195.750 230.350 C 196.083 228.683,195.760 228.360,195.400 230.000 M223.070 229.381 C 221.755 229.850,220.708 230.424,221.233 230.389 C 221.840 230.348,225.680 228.854,225.200 228.846 C 224.870 228.840,223.912 229.081,223.070 229.381 M238.043 229.348 C 237.719 229.739,237.707 230.171,238.003 230.848 C 238.405 231.770,238.412 231.766,238.204 230.709 C 237.979 229.567,238.096 229.492,240.800 229.066 C 241.402 228.972,241.142 228.887,240.149 228.854 C 239.178 228.822,238.310 229.026,238.043 229.348 M247.200 229.206 C 246.778 229.482,247.015 229.523,248.000 229.342 C 249.725 229.025,250.051 228.798,248.767 228.806 C 248.235 228.809,247.530 228.989,247.200 229.206 M156.554 229.777 C 156.432 230.094,156.417 230.679,156.520 231.077 C 156.645 231.558,156.723 231.438,156.754 230.719 C 156.798 229.681,156.899 229.633,159.300 229.496 L 161.800 229.354 159.287 229.277 C 157.415 229.220,156.718 229.347,156.554 229.777 M179.400 230.078 C 178.492 230.593,178.000 231.214,178.038 231.800 C 178.052 232.020,178.159 231.960,178.276 231.667 C 178.393 231.374,179.054 230.790,179.744 230.369 C 181.071 229.560,180.767 229.303,179.400 230.078 M232.257 230.934 C 232.886 231.672,233.459 232.229,233.532 232.172 C 233.797 231.965,232.334 230.060,231.733 229.830 C 231.389 229.698,231.621 230.187,232.257 230.934 M245.000 230.564 C 244.162 231.234,243.712 231.385,243.506 231.062 C 243.314 230.760,243.210 230.835,243.206 231.276 C 243.196 232.410,243.735 232.317,245.200 230.931 C 246.835 229.384,246.725 229.184,245.000 230.564 M264.000 230.419 C 264.550 230.959,265.326 231.851,265.725 232.401 C 266.424 233.365,266.424 233.353,265.725 232.046 C 265.326 231.301,264.550 230.410,264.000 230.064 L 263.000 229.437 264.000 230.419 M161.771 238.800 C 161.771 243.750,161.828 245.775,161.899 243.300 C 161.969 240.825,161.969 236.775,161.899 234.300 C 161.828 231.825,161.771 233.850,161.771 238.800 M163.640 230.867 C 163.558 232.246,164.072 232.800,165.433 232.800 L 166.780 232.800 166.905 239.100 L 167.030 245.400 167.015 239.000 L 167.000 232.600 165.617 232.400 C 164.567 232.248,164.167 231.959,163.957 231.200 C 163.801 230.638,163.662 230.492,163.640 230.867 M201.053 232.500 C 200.921 233.655,200.953 235.230,201.124 236.000 C 201.359 237.056,201.441 236.540,201.458 233.900 C 201.485 229.873,201.390 229.544,201.053 232.500 M249.050 232.050 C 248.909 232.753,248.869 233.402,248.959 233.492 C 249.050 233.583,249.248 233.091,249.400 232.400 C 249.552 231.709,249.593 231.059,249.491 230.958 C 249.389 230.856,249.191 231.347,249.050 232.050 M175.462 231.783 C 175.311 232.175,174.719 232.400,173.836 232.400 C 173.072 232.400,172.362 232.538,172.257 232.707 C 171.912 233.266,175.159 232.731,175.642 232.150 C 175.901 231.837,176.021 231.487,175.906 231.373 C 175.792 231.259,175.592 231.443,175.462 231.783 M150.258 233.704 C 149.328 236.140,149.480 236.604,150.436 234.247 C 150.872 233.173,151.158 232.224,151.072 232.138 C 150.986 232.052,150.620 232.757,150.258 233.704 M183.600 232.432 C 183.130 232.761,183.195 232.797,183.900 232.599 C 185.169 232.242,186.392 232.721,186.801 233.735 C 187.063 234.387,187.156 234.433,187.175 233.923 C 187.226 232.555,184.843 231.562,183.600 232.432 M220.343 232.633 C 221.185 234.328,221.867 234.563,223.293 233.650 C 224.012 233.190,224.459 232.810,224.286 232.807 C 224.113 232.803,223.504 233.106,222.933 233.481 C 221.916 234.147,221.873 234.137,220.911 232.981 C 220.330 232.282,220.098 232.140,220.343 232.633 M225.400 232.374 C 224.824 232.603,225.069 232.681,226.274 232.654 C 227.194 232.632,227.734 232.479,227.474 232.314 C 226.896 231.946,226.443 231.960,225.400 232.374 M238.487 239.857 C 238.390 248.866,238.233 248.400,241.353 248.400 C 243.912 248.400,244.011 248.153,243.917 242.020 L 243.835 236.600 243.617 242.200 L 243.400 247.800 241.200 247.800 L 239.000 247.800 238.787 239.800 L 238.574 231.800 238.487 239.857 M257.424 232.613 C 256.996 232.936,256.851 233.200,257.100 233.200 C 257.349 233.200,257.664 233.020,257.800 232.800 C 258.218 232.124,259.956 232.356,260.800 233.200 C 261.240 233.640,261.600 233.830,261.600 233.623 C 261.600 232.320,258.728 231.626,257.424 232.613 M194.901 234.200 C 194.905 235.080,194.987 235.393,195.083 234.895 C 195.179 234.398,195.175 233.678,195.075 233.295 C 194.975 232.913,194.896 233.320,194.901 234.200 M233.683 238.220 C 233.592 244.382,233.738 244.835,235.780 244.747 C 236.991 244.695,236.989 244.693,235.600 244.447 L 234.200 244.200 233.983 238.400 L 233.766 232.600 233.683 238.220 M246.200 234.337 C 245.540 234.740,244.735 235.415,244.412 235.835 C 243.964 236.418,244.059 236.391,244.815 235.722 C 245.360 235.238,246.434 234.570,247.203 234.237 C 247.971 233.904,248.330 233.625,248.000 233.617 C 247.670 233.609,246.860 233.933,246.200 234.337 M266.671 235.444 C 266.798 236.644,266.696 237.883,266.422 238.444 C 265.980 239.351,265.988 239.360,266.578 238.624 C 267.243 237.794,267.330 236.029,266.787 234.400 C 266.564 233.733,266.525 234.080,266.671 235.444 M192.182 239.293 L 192.200 244.587 193.683 244.828 C 194.499 244.960,195.073 244.918,194.959 244.734 C 194.846 244.550,194.229 244.400,193.588 244.400 L 192.423 244.400 192.293 239.199 L 192.164 233.999 192.182 239.293 M228.860 235.113 C 228.827 235.834,228.575 236.492,228.300 236.574 C 228.025 236.656,226.990 236.907,226.000 237.133 L 224.200 237.543 226.200 237.327 C 228.618 237.065,229.320 236.489,229.092 234.954 C 228.923 233.823,228.919 233.826,228.860 235.113 M143.225 236.726 C 143.185 237.568,144.004 238.844,144.420 238.588 C 144.629 238.458,144.797 238.048,144.794 237.676 C 144.789 237.102,144.731 237.089,144.414 237.590 C 144.110 238.072,143.969 237.999,143.646 237.190 C 143.429 236.646,143.239 236.437,143.225 236.726 M185.600 236.800 L 184.200 237.095 185.476 237.147 C 186.178 237.176,186.864 237.020,187.000 236.800 C 187.136 236.580,187.192 236.424,187.124 236.453 C 187.056 236.482,186.370 236.638,185.600 236.800 M250.128 238.800 C 250.128 240.230,250.201 240.815,250.289 240.100 C 250.378 239.385,250.378 238.215,250.289 237.500 C 250.201 236.785,250.128 237.370,250.128 238.800 M195.280 237.400 C 195.280 237.840,195.424 238.650,195.600 239.200 C 195.854 239.992,195.920 240.033,195.920 239.400 C 195.920 238.960,195.776 238.150,195.600 237.600 C 195.346 236.808,195.280 236.767,195.280 237.400 M222.800 237.889 C 221.677 238.310,220.000 239.653,219.554 240.487 C 219.306 240.949,219.756 240.671,220.568 239.859 C 221.370 239.057,222.280 238.400,222.590 238.400 C 222.899 238.400,223.264 238.220,223.400 238.000 C 223.670 237.563,223.669 237.562,222.800 237.889 M178.575 239.700 L 177.400 241.000 178.700 239.825 C 179.912 238.730,180.184 238.400,179.875 238.400 C 179.806 238.400,179.221 238.985,178.575 239.700 M255.336 239.822 C 255.205 240.164,255.290 240.839,255.526 241.322 C 255.901 242.088,255.927 242.035,255.730 240.912 L 255.505 239.625 260.652 239.499 L 265.800 239.374 260.687 239.287 C 256.378 239.214,255.537 239.298,255.336 239.822 M185.741 240.690 C 186.741 240.840,186.861 241.002,186.713 242.009 C 186.621 242.641,186.692 243.067,186.872 242.955 C 187.922 242.307,187.180 240.401,185.900 240.460 C 184.632 240.518,184.628 240.524,185.741 240.690 M196.000 240.553 C 196.000 240.982,197.190 243.200,197.421 243.200 C 197.531 243.200,197.323 242.615,196.959 241.900 C 196.217 240.440,196.000 240.136,196.000 240.553 M227.875 240.686 C 228.357 240.775,228.833 241.111,228.935 241.432 C 229.051 241.802,229.096 241.757,229.056 241.308 C 229.015 240.849,228.643 240.586,227.997 240.561 C 227.176 240.530,227.154 240.551,227.875 240.686 M182.792 241.410 C 182.514 241.745,182.402 242.135,182.543 242.276 C 182.684 242.418,182.800 242.318,182.800 242.054 C 182.800 241.790,183.205 241.411,183.700 241.212 C 184.309 240.968,184.390 240.843,183.949 240.825 C 183.591 240.811,183.070 241.074,182.792 241.410 M224.662 241.531 C 223.336 242.997,224.080 244.800,226.010 244.800 C 226.982 244.800,228.800 243.380,228.800 242.620 C 228.800 242.440,228.419 242.776,227.954 243.368 C 226.780 244.860,224.660 244.720,224.477 243.139 C 224.391 242.397,224.629 241.885,225.266 241.439 C 225.768 241.087,225.986 240.800,225.751 240.800 C 225.516 240.800,225.026 241.129,224.662 241.531 M177.052 242.439 C 176.636 244.521,177.672 247.235,179.092 247.780 C 179.464 247.923,179.305 247.596,178.717 247.008 C 177.566 245.857,177.106 244.171,177.460 242.400 C 177.592 241.740,177.610 241.200,177.500 241.200 C 177.390 241.200,177.188 241.758,177.052 242.439 M204.000 242.553 C 205.803 244.578,209.425 245.532,211.154 244.437 C 211.495 244.221,211.004 244.165,209.878 244.292 C 207.434 244.568,206.305 244.235,204.507 242.709 C 203.142 241.550,203.094 241.536,204.000 242.553 M218.914 243.400 C 218.917 244.500,218.995 244.903,219.087 244.295 C 219.179 243.686,219.177 242.786,219.082 242.295 C 218.987 241.803,218.911 242.300,218.914 243.400 M213.211 243.020 C 212.447 243.559,211.970 244.000,212.150 244.000 C 212.329 244.000,213.011 243.619,213.664 243.154 L 214.851 242.309 215.914 243.254 C 216.732 243.983,216.841 244.017,216.388 243.400 C 215.177 241.752,215.031 241.735,213.211 243.020 M256.000 242.664 C 256.000 242.882,256.495 243.497,257.100 244.030 L 258.200 245.000 257.200 243.800 C 256.650 243.140,256.155 242.525,256.100 242.433 C 256.045 242.342,256.000 242.445,256.000 242.664 M263.816 243.574 C 263.671 243.809,263.789 243.902,264.088 243.788 C 264.601 243.591,266.000 245.466,266.000 246.349 C 266.000 246.583,265.505 247.043,264.900 247.371 C 264.295 247.699,264.005 247.975,264.256 247.984 C 264.506 247.993,265.136 247.649,265.656 247.219 L 266.600 246.438 265.751 244.936 C 264.845 243.333,264.232 242.901,263.816 243.574 M182.561 244.090 C 182.727 244.931,185.382 244.954,186.015 244.120 C 186.482 243.505,186.480 243.473,186.001 243.900 C 185.326 244.502,182.949 244.566,182.663 243.990 C 182.552 243.764,182.505 243.810,182.561 244.090 M198.800 244.947 C 199.570 245.782,200.560 246.655,201.000 246.887 C 201.440 247.119,201.710 247.225,201.600 247.122 C 199.042 244.743,197.528 243.567,198.800 244.947 M251.514 244.600 C 251.741 245.040,252.438 245.849,253.063 246.399 L 254.200 247.397 253.003 245.999 C 251.107 243.782,251.080 243.758,251.514 244.600 M259.100 245.082 C 259.595 245.178,260.405 245.178,260.900 245.082 C 261.395 244.987,260.990 244.909,260.000 244.909 C 259.010 244.909,258.605 244.987,259.100 245.082 M236.993 246.079 C 237.143 246.843,237.000 247.277,236.502 247.567 C 236.116 247.792,236.003 247.981,236.251 247.988 C 237.145 248.012,237.636 246.956,237.197 245.952 C 236.792 245.023,236.787 245.026,236.993 246.079 M175.952 246.713 C 175.821 247.507,175.879 247.881,176.101 247.659 C 176.303 247.457,176.401 246.867,176.319 246.346 C 176.193 245.545,176.137 245.602,175.952 246.713 M195.200 246.253 C 195.200 246.686,194.984 247.256,194.720 247.520 C 194.355 247.885,194.353 248.000,194.712 248.000 C 195.234 248.000,195.842 246.109,195.448 245.715 C 195.312 245.578,195.200 245.821,195.200 246.253 M219.200 245.841 C 219.200 248.300,224.849 249.561,228.105 247.830 C 229.882 246.885,229.948 246.879,230.606 247.607 C 231.469 248.560,233.067 248.899,234.600 248.454 C 235.624 248.157,235.487 248.113,233.665 248.153 C 231.852 248.193,231.411 248.053,230.737 247.220 C 230.074 246.403,229.831 246.321,229.271 246.728 C 226.108 249.027,221.599 248.848,219.852 246.353 C 219.494 245.841,219.200 245.611,219.200 245.841 M186.800 247.256 L 185.800 248.095 186.911 247.431 C 187.523 247.066,188.225 246.892,188.473 247.045 C 188.748 247.215,188.812 247.144,188.638 246.862 C 188.245 246.225,187.955 246.288,186.800 247.256 M140.812 247.051 C 140.788 247.938,141.958 248.447,143.670 248.294 L 145.400 248.140 143.520 248.070 C 142.204 248.021,141.517 247.790,141.232 247.300 C 141.008 246.915,140.819 246.803,140.812 247.051 M157.163 248.124 C 157.342 248.303,158.369 248.390,159.444 248.318 L 161.400 248.187 159.119 247.994 C 157.864 247.887,156.984 247.946,157.163 248.124 M189.735 248.206 C 190.627 248.722,191.185 248.780,192.335 248.479 L 193.800 248.095 192.000 248.131 C 191.010 248.151,189.840 248.028,189.400 247.858 C 188.960 247.688,189.111 247.845,189.735 248.206 M172.000 248.400 L 170.200 248.680 171.800 248.700 C 172.680 248.711,173.850 248.576,174.400 248.400 C 175.663 247.995,174.602 247.995,172.000 248.400 M180.540 248.494 C 181.108 248.857,183.954 248.841,184.890 248.470 C 185.270 248.319,184.343 248.197,182.830 248.198 C 181.318 248.199,180.287 248.332,180.540 248.494 M204.876 248.460 C 205.384 248.603,206.970 248.720,208.400 248.720 C 209.830 248.720,211.416 248.603,211.924 248.460 C 212.432 248.317,210.846 248.200,208.400 248.200 C 205.954 248.200,204.368 248.317,204.876 248.460 M256.876 248.460 C 257.384 248.603,258.700 248.720,259.800 248.720 C 260.900 248.720,262.216 248.603,262.724 248.460 C 263.232 248.317,261.916 248.200,259.800 248.200 C 257.684 248.200,256.368 248.317,256.876 248.460 M138.100 260.276 C 138.485 260.376,139.115 260.376,139.500 260.276 C 139.885 260.175,139.570 260.093,138.800 260.093 C 138.030 260.093,137.715 260.175,138.100 260.276 M146.005 260.876 C 145.602 261.705,145.614 261.728,146.122 261.100 C 147.864 258.946,148.370 260.029,148.506 266.200 L 148.633 272.001 148.617 266.100 L 148.600 260.200 147.527 260.076 C 146.731 259.984,146.338 260.190,146.005 260.876 M150.889 266.085 L 151.000 272.200 154.200 272.224 L 157.400 272.248 154.300 272.108 L 151.200 271.968 151.200 266.168 L 151.200 260.368 154.500 260.484 C 156.879 260.568,157.772 260.740,157.700 261.100 C 157.645 261.375,157.793 261.600,158.029 261.600 C 158.265 261.600,158.398 261.285,158.325 260.900 C 158.211 260.304,157.642 260.183,154.485 260.085 L 150.779 259.970 150.889 266.085 M159.690 266.100 L 159.800 272.200 162.400 272.227 L 165.000 272.255 162.500 272.109 L 160.000 271.963 160.000 266.129 L 160.000 260.295 163.100 260.491 C 164.805 260.599,165.840 260.545,165.400 260.372 C 164.960 260.198,163.470 260.044,162.090 260.028 L 159.579 260.000 159.690 266.100 M170.976 260.519 C 170.866 260.805,170.832 263.550,170.900 266.619 L 171.025 272.200 171.112 266.253 C 171.197 260.524,171.229 260.314,172.000 260.516 C 172.440 260.631,172.800 260.562,172.800 260.363 C 172.800 259.799,171.199 259.936,170.976 260.519 M177.000 260.800 C 175.436 261.836,175.992 261.837,177.690 260.801 C 178.411 260.362,178.820 260.004,178.600 260.004 C 178.380 260.005,177.660 260.363,177.000 260.800 M182.100 260.465 C 182.809 260.724,183.217 261.175,183.246 261.733 C 183.288 262.513,183.313 262.522,183.490 261.826 C 183.705 260.984,182.660 259.979,181.624 260.032 C 181.281 260.049,181.495 260.244,182.100 260.465 M187.255 262.238 C 186.775 263.491,186.455 264.589,186.544 264.678 C 186.633 264.766,187.040 263.908,187.450 262.770 C 188.266 260.500,188.865 260.026,189.870 260.855 C 190.434 261.321,190.502 261.313,190.334 260.800 C 189.791 259.137,188.148 259.904,187.255 262.238 M195.888 260.261 C 196.742 260.445,196.781 260.651,196.888 265.526 L 197.000 270.600 199.169 270.800 C 202.616 271.118,202.214 271.939,198.528 272.111 L 195.400 272.258 198.600 272.229 C 201.524 272.202,201.800 272.131,201.800 271.400 C 201.800 270.707,201.493 270.584,199.512 270.480 L 197.224 270.361 197.112 265.280 L 197.000 260.200 196.000 260.134 C 195.142 260.078,195.126 260.096,195.888 260.261 M209.000 260.800 C 207.436 261.836,207.992 261.837,209.690 260.801 C 210.411 260.362,210.820 260.004,210.600 260.004 C 210.380 260.005,209.660 260.363,209.000 260.800 M214.100 260.465 C 214.809 260.724,215.217 261.175,215.246 261.733 C 215.288 262.513,215.313 262.522,215.490 261.826 C 215.705 260.984,214.660 259.979,213.624 260.032 C 213.281 260.049,213.495 260.244,214.100 260.465 M217.081 260.252 C 216.506 260.827,216.761 271.470,217.362 271.969 C 218.412 272.840,224.200 272.359,224.200 271.400 C 224.200 270.707,223.867 270.573,221.700 270.400 C 220.325 270.290,219.200 270.326,219.200 270.480 C 219.200 270.634,220.221 270.814,221.468 270.880 C 225.407 271.088,224.726 272.056,220.739 271.917 L 217.400 271.800 217.400 266.200 L 217.400 260.600 220.668 260.484 C 223.521 260.383,223.962 260.459,224.145 261.084 C 224.315 261.668,224.339 261.652,224.273 261.000 C 224.189 260.179,217.817 259.517,217.081 260.252 M225.867 260.267 C 225.272 260.861,225.574 271.480,226.200 272.000 C 227.415 273.009,227.962 271.809,228.085 267.863 L 228.200 264.200 230.951 268.319 C 234.759 274.020,235.000 273.894,235.000 266.200 C 235.000 260.762,234.935 260.205,234.292 260.146 C 233.797 260.101,233.767 260.138,234.192 260.270 C 235.008 260.523,235.113 272.006,234.300 271.990 C 234.025 271.985,232.450 269.960,230.800 267.490 L 227.800 263.000 227.600 267.400 C 227.438 270.956,227.285 271.800,226.800 271.800 C 225.663 271.800,225.938 260.637,227.079 260.475 C 227.764 260.378,228.286 260.843,229.436 262.575 C 230.916 264.805,231.907 265.768,230.593 263.700 C 228.428 260.293,226.929 259.204,225.867 260.267 M236.446 260.900 C 236.481 261.577,236.538 261.627,236.676 261.100 C 236.834 260.493,237.383 260.400,240.800 260.400 C 244.217 260.400,244.766 260.493,244.924 261.100 C 245.062 261.627,245.119 261.577,245.154 260.900 C 245.199 260.018,245.110 260.000,240.800 260.000 C 236.490 260.000,236.401 260.018,236.446 260.900 M246.406 260.700 C 246.410 261.178,246.509 261.247,246.719 260.918 C 246.906 260.623,248.343 260.382,250.413 260.299 L 253.800 260.163 250.100 260.081 C 246.810 260.009,246.401 260.078,246.406 260.700 M255.199 260.300 C 255.199 260.465,256.452 260.540,257.985 260.468 C 262.359 260.260,264.162 262.719,261.744 265.593 C 260.894 266.604,260.788 266.941,261.203 267.324 C 261.603 267.695,261.654 267.687,261.430 267.292 C 261.264 266.998,261.576 266.269,262.171 265.561 C 264.571 262.709,262.554 260.000,258.031 260.000 C 256.474 260.000,255.200 260.135,255.199 260.300 M166.932 261.380 C 167.335 261.686,167.933 262.265,168.262 262.668 C 168.591 263.070,168.729 263.130,168.569 262.800 C 168.091 261.813,167.106 260.799,166.638 260.813 C 166.397 260.820,166.530 261.075,166.932 261.380 M194.958 266.200 C 194.958 269.280,195.021 270.487,195.097 268.882 C 195.173 267.278,195.173 264.758,195.096 263.282 C 195.019 261.807,194.957 263.120,194.958 266.200 M233.128 264.401 C 233.058 266.381,233.135 268.001,233.300 268.001 C 233.465 268.000,233.600 266.380,233.600 264.400 C 233.600 259.748,233.294 259.748,233.128 264.401 M172.957 266.400 C 172.957 269.370,173.020 270.585,173.097 269.100 C 173.174 267.615,173.174 265.185,173.097 263.700 C 173.020 262.215,172.957 263.430,172.957 266.400 M250.879 261.497 L 248.358 261.639 248.479 263.520 L 248.600 265.400 250.500 265.522 C 252.744 265.666,253.075 266.397,250.900 266.406 C 248.715 266.415,248.328 266.803,248.474 268.840 L 248.600 270.600 250.788 270.724 C 251.991 270.792,253.210 271.043,253.497 271.281 C 253.898 271.613,253.960 271.562,253.766 271.057 C 253.572 270.550,252.972 270.400,251.134 270.400 L 248.754 270.400 248.877 268.700 C 249.000 267.004,249.005 266.999,250.800 266.800 C 252.044 266.662,252.600 266.415,252.600 266.000 C 252.600 265.585,252.044 265.338,250.800 265.200 C 249.050 265.006,248.997 264.958,248.876 263.500 L 248.752 262.000 250.952 262.000 C 252.163 262.000,253.264 261.820,253.400 261.600 C 253.536 261.380,253.592 261.235,253.524 261.277 C 253.456 261.319,252.265 261.418,250.879 261.497 M152.878 263.500 L 153.000 265.400 154.900 265.522 C 155.945 265.589,156.800 265.804,156.800 266.000 C 156.800 266.196,155.945 266.411,154.900 266.478 L 153.000 266.600 153.000 268.600 L 153.000 270.600 155.200 270.716 C 156.671 270.794,157.566 271.051,157.900 271.493 C 158.175 271.856,158.400 271.975,158.400 271.756 C 158.400 270.872,157.328 270.400,155.320 270.400 L 153.200 270.400 153.200 268.622 L 153.200 266.844 155.100 266.722 C 156.468 266.634,157.000 266.432,157.000 266.000 C 157.000 265.568,156.468 265.366,155.100 265.278 L 153.200 265.156 153.200 263.599 L 153.200 262.042 155.300 261.895 L 157.400 261.748 155.078 261.674 L 152.756 261.600 152.878 263.500 M161.687 266.100 L 161.800 270.600 163.303 270.642 L 164.807 270.684 163.403 270.518 L 162.000 270.352 162.000 266.176 L 162.000 262.000 163.346 262.000 C 164.918 262.000,166.672 263.231,166.919 264.508 C 167.089 265.391,167.092 265.391,167.146 264.536 C 167.230 263.193,165.066 261.600,163.156 261.600 L 161.574 261.600 161.687 266.100 M177.629 262.654 C 177.173 263.234,176.807 263.909,176.816 264.154 C 176.825 264.399,177.106 264.095,177.440 263.478 C 177.775 262.861,178.443 262.198,178.924 262.004 C 179.566 261.745,179.621 261.644,179.129 261.625 C 178.760 261.611,178.085 262.074,177.629 262.654 M209.629 262.654 C 209.173 263.234,208.807 263.909,208.816 264.154 C 208.825 264.399,209.106 264.095,209.440 263.478 C 209.775 262.861,210.443 262.198,210.924 262.004 C 211.566 261.745,211.621 261.644,211.129 261.625 C 210.760 261.611,210.085 262.074,209.629 262.654 M220.307 261.890 C 221.026 261.979,222.106 261.977,222.707 261.886 C 223.308 261.795,222.720 261.722,221.400 261.724 C 220.080 261.726,219.588 261.801,220.307 261.890 M238.288 261.888 L 239.576 262.049 239.701 266.924 L 239.827 271.800 239.914 266.700 L 240.000 261.600 238.500 261.664 C 237.040 261.726,237.035 261.732,238.288 261.888 M241.686 266.700 L 241.773 271.800 241.899 266.924 L 242.024 262.049 243.312 261.888 C 244.565 261.732,244.560 261.726,243.100 261.664 L 241.600 261.600 241.686 266.700 M246.557 266.800 C 246.557 269.770,246.620 270.985,246.697 269.500 C 246.774 268.015,246.774 265.585,246.697 264.100 C 246.620 262.615,246.557 263.830,246.557 266.800 M255.357 266.800 C 255.357 269.770,255.420 270.985,255.497 269.500 C 255.574 268.015,255.574 265.585,255.497 264.100 C 255.420 262.615,255.357 263.830,255.357 266.800 M257.200 263.600 L 257.200 265.600 258.500 265.540 C 259.710 265.484,259.724 265.469,258.700 265.313 C 257.002 265.056,257.020 262.000,258.720 262.000 C 259.336 262.000,260.092 262.225,260.401 262.500 C 260.878 262.925,260.882 262.896,260.432 262.300 C 260.111 261.876,259.369 261.600,258.551 261.600 L 257.200 261.600 257.200 263.600 M174.643 263.833 C 174.326 264.658,174.380 267.609,174.728 268.485 C 174.878 268.862,175.000 267.828,175.000 266.186 C 175.000 262.930,174.997 262.910,174.643 263.833 M206.643 263.833 C 206.326 264.658,206.380 267.609,206.728 268.485 C 206.878 268.862,207.000 267.828,207.000 266.186 C 207.000 262.930,206.997 262.910,206.643 263.833 M168.932 266.200 C 168.933 268.444,168.994 268.722,169.238 267.600 C 169.406 266.830,169.405 265.570,169.237 264.800 C 168.992 263.678,168.932 263.956,168.932 266.200 M188.480 264.080 C 188.216 264.344,188.011 264.839,188.025 265.180 C 188.039 265.523,188.228 265.357,188.446 264.810 C 188.769 264.001,188.910 263.928,189.214 264.410 C 189.528 264.906,189.589 264.889,189.594 264.300 C 189.601 263.485,189.161 263.399,188.480 264.080 M139.268 268.020 L 139.335 271.800 139.585 268.400 C 139.723 266.530,139.692 264.829,139.518 264.620 C 139.343 264.411,139.230 265.941,139.268 268.020 M146.100 265.185 C 145.825 265.627,145.603 266.217,145.606 266.495 C 145.610 266.839,145.736 266.809,146.000 266.400 C 146.271 265.981,146.390 266.652,146.394 268.620 C 146.400 271.294,146.798 272.400,147.756 272.400 C 147.975 272.400,147.853 272.175,147.487 271.900 C 146.972 271.513,146.796 270.606,146.711 267.891 C 146.616 264.894,146.527 264.499,146.100 265.185 M219.461 265.300 C 219.564 265.465,220.357 265.600,221.224 265.600 C 223.326 265.600,223.250 266.321,221.131 266.477 C 220.181 266.547,219.419 266.820,219.361 267.110 C 219.305 267.390,219.351 267.435,219.463 267.210 C 219.575 266.984,220.462 266.800,221.433 266.800 C 224.182 266.800,224.010 265.334,221.238 265.139 C 220.158 265.062,219.359 265.135,219.461 265.300 M189.600 265.847 C 189.600 266.296,189.356 266.430,188.800 266.284 C 188.360 266.169,188.000 266.238,188.000 266.437 C 188.000 266.637,188.450 266.800,189.000 266.800 C 189.733 266.800,190.000 266.587,190.000 266.000 C 190.000 265.560,189.910 265.200,189.800 265.200 C 189.690 265.200,189.600 265.491,189.600 265.847 M143.632 266.900 C 143.595 267.707,142.963 267.838,142.665 267.100 C 142.541 266.792,142.451 266.860,142.432 267.276 C 142.414 267.648,142.560 268.051,142.755 268.172 C 143.249 268.478,144.120 267.338,143.869 266.713 C 143.740 266.391,143.651 266.460,143.632 266.900 M257.467 267.067 C 257.320 267.213,257.200 268.284,257.200 269.447 C 257.200 271.038,257.027 271.661,256.500 271.968 C 256.115 272.192,255.989 272.381,256.220 272.388 C 257.121 272.414,257.600 271.350,257.600 269.320 C 257.600 266.744,258.394 266.466,259.653 268.600 C 260.566 270.147,261.098 270.522,260.363 269.100 C 259.364 267.170,258.189 266.344,257.467 267.067 M166.846 267.825 C 166.821 268.278,166.433 269.043,165.984 269.525 C 165.536 270.006,165.335 270.400,165.538 270.400 C 166.143 270.400,167.264 268.407,167.071 267.676 C 166.933 267.152,166.882 267.185,166.846 267.825 M176.825 268.471 C 176.784 269.553,178.725 270.806,180.354 270.750 L 181.800 270.700 180.200 270.436 C 178.231 270.111,177.643 269.763,177.197 268.659 C 176.939 268.018,176.844 267.970,176.825 268.471 M186.825 268.753 C 186.591 269.190,186.414 269.784,186.432 270.074 C 186.449 270.363,186.644 270.105,186.865 269.500 C 187.338 268.206,190.560 267.816,190.930 269.008 C 191.062 269.434,191.100 269.404,191.056 268.908 C 190.957 267.797,187.406 267.667,186.825 268.753 M208.825 268.471 C 208.784 269.553,210.725 270.806,212.354 270.750 L 213.800 270.700 212.200 270.436 C 210.231 270.111,209.643 269.763,209.197 268.659 C 208.939 268.018,208.844 267.970,208.825 268.471 M262.200 269.200 C 262.541 269.860,262.911 270.400,263.021 270.400 C 263.131 270.400,262.941 269.860,262.600 269.200 C 262.259 268.540,261.889 268.000,261.779 268.000 C 261.669 268.000,261.859 268.540,262.200 269.200 M167.202 270.727 C 166.206 271.777,166.082 272.019,166.773 271.571 C 167.598 271.035,169.191 269.146,168.749 269.227 C 168.667 269.243,167.971 269.918,167.202 270.727 M175.656 270.341 C 175.910 270.748,176.497 271.311,176.959 271.591 C 177.548 271.947,177.448 271.725,176.625 270.850 C 175.288 269.427,174.986 269.269,175.656 270.341 M207.656 270.341 C 207.910 270.748,208.497 271.311,208.959 271.591 C 209.548 271.947,209.448 271.725,208.625 270.850 C 207.288 269.427,206.986 269.269,207.656 270.341 M182.746 270.429 C 183.494 270.729,183.595 270.924,183.232 271.362 C 182.868 271.800,182.921 271.904,183.486 271.858 C 184.311 271.791,184.788 271.257,184.788 270.400 C 184.788 269.973,184.700 269.938,184.483 270.279 C 184.283 270.595,183.978 270.631,183.589 270.385 C 183.265 270.180,182.730 270.021,182.400 270.031 C 182.070 270.042,182.226 270.221,182.746 270.429 M214.746 270.429 C 215.566 270.758,215.622 270.900,215.168 271.504 C 214.697 272.129,214.723 272.128,215.422 271.486 C 216.258 270.718,215.746 269.988,214.400 270.031 C 214.070 270.042,214.226 270.221,214.746 270.429 M261.299 271.200 C 261.627 271.750,262.234 272.242,262.648 272.293 C 263.171 272.358,263.217 272.312,262.800 272.145 C 262.470 272.012,261.863 271.520,261.451 271.052 L 260.702 270.200 261.299 271.200 M193.600 271.304 C 193.600 271.655,193.285 272.024,192.900 272.124 C 192.244 272.296,192.245 272.310,192.913 272.354 C 193.636 272.401,194.306 271.373,193.849 270.916 C 193.712 270.779,193.600 270.953,193.600 271.304 M179.107 272.290 C 179.826 272.379,180.906 272.377,181.507 272.286 C 182.108 272.195,181.520 272.122,180.200 272.124 C 178.880 272.126,178.388 272.201,179.107 272.290 M211.107 272.290 C 211.826 272.379,212.906 272.377,213.507 272.286 C 214.108 272.195,213.520 272.122,212.200 272.124 C 210.880 272.126,210.388 272.201,211.107 272.290 M248.711 272.293 C 249.651 272.378,251.091 272.377,251.911 272.291 C 252.730 272.205,251.960 272.136,250.200 272.137 C 248.440 272.139,247.770 272.209,248.711 272.293 " stroke="none" fill="#a5bddd" fill-rule="evenodd" data-index="3"></path><path id="path4" d="M137.728 134.000 C 137.728 135.430,137.801 136.015,137.889 135.300 C 137.978 134.585,137.978 133.415,137.889 132.700 C 137.801 131.985,137.728 132.570,137.728 134.000 M241.792 184.500 L 237.800 188.600 241.900 184.608 C 244.155 182.412,246.000 180.567,246.000 180.508 C 246.000 180.218,245.501 180.692,241.792 184.500 M205.517 220.328 C 205.142 220.478,206.548 220.600,208.641 220.600 C 210.735 220.600,212.032 220.483,211.524 220.340 C 210.295 219.994,206.376 219.986,205.517 220.328 M198.981 224.100 L 197.400 225.800 199.100 224.219 C 200.681 222.748,200.984 222.400,200.681 222.400 C 200.616 222.400,199.851 223.165,198.981 224.100 M215.999 224.100 C 215.410 224.904,215.313 225.184,215.745 224.833 C 216.401 224.300,217.393 222.800,217.089 222.800 C 217.013 222.800,216.522 223.385,215.999 224.100 M207.905 223.883 C 208.402 223.979,209.122 223.975,209.505 223.875 C 209.887 223.775,209.480 223.696,208.600 223.701 C 207.720 223.705,207.407 223.787,207.905 223.883 M213.424 225.387 C 213.851 225.710,214.470 225.979,214.800 225.985 C 215.130 225.990,214.884 225.726,214.254 225.398 C 212.795 224.637,212.425 224.632,213.424 225.387 M171.600 227.976 C 171.600 228.623,171.742 229.241,171.916 229.348 C 172.090 229.456,172.161 228.927,172.073 228.172 C 171.876 226.491,171.600 226.377,171.600 227.976 M184.033 228.944 C 184.125 229.023,185.190 229.189,186.400 229.312 C 187.769 229.451,188.298 229.408,187.800 229.196 C 187.033 228.870,183.689 228.647,184.033 228.944 M225.000 229.196 C 224.502 229.408,225.031 229.451,226.400 229.312 C 227.610 229.189,228.675 229.023,228.767 228.944 C 229.111 228.647,225.767 228.870,225.000 229.196 M240.200 229.219 L 238.600 229.524 240.211 229.484 C 241.097 229.461,242.087 229.603,242.411 229.798 C 242.917 230.104,242.923 230.059,242.451 229.477 C 242.149 229.105,241.879 228.826,241.851 228.857 C 241.823 228.888,241.080 229.051,240.200 229.219 M256.600 229.190 C 256.117 229.392,256.751 229.438,258.200 229.307 C 259.520 229.187,260.675 229.024,260.767 228.945 C 261.107 228.649,257.370 228.869,256.600 229.190 M248.313 229.484 C 249.114 229.638,249.200 229.839,249.021 231.129 C 248.857 232.316,248.885 232.407,249.169 231.600 C 249.834 229.707,249.688 229.196,248.500 229.254 C 247.538 229.302,247.515 229.331,248.313 229.484 M161.372 238.800 C 161.372 243.970,161.429 246.085,161.499 243.500 C 161.568 240.915,161.568 236.685,161.499 234.100 C 161.429 231.515,161.372 233.630,161.372 238.800 M188.833 229.700 C 188.925 229.755,189.540 230.250,190.200 230.800 L 191.400 231.800 190.430 230.700 C 189.897 230.095,189.282 229.600,189.064 229.600 C 188.845 229.600,188.742 229.645,188.833 229.700 M175.410 231.170 C 175.214 231.785,174.810 232.000,173.853 232.000 C 171.721 232.000,171.592 232.393,171.683 238.580 L 171.766 244.200 171.983 238.400 L 172.200 232.600 173.699 232.476 C 175.074 232.362,176.458 231.124,175.869 230.536 C 175.761 230.428,175.554 230.713,175.410 231.170 M178.880 230.880 C 178.298 231.462,178.258 232.265,178.795 232.597 C 179.023 232.738,179.089 232.576,178.951 232.216 C 178.819 231.871,178.933 231.322,179.204 230.995 C 179.795 230.283,179.560 230.200,178.880 230.880 M220.386 231.017 C 219.969 231.519,219.971 231.724,220.396 232.117 C 220.810 232.500,220.851 232.484,220.598 232.039 C 220.392 231.679,220.541 231.286,221.015 230.939 C 221.421 230.643,221.561 230.400,221.325 230.400 C 221.090 230.400,220.668 230.678,220.386 231.017 M156.880 239.076 C 156.836 243.738,156.935 247.637,157.100 247.739 C 157.265 247.842,157.353 245.377,157.296 242.263 C 157.102 231.666,156.961 230.583,156.880 239.076 M232.655 231.800 C 233.580 233.379,233.600 233.403,233.600 232.911 C 233.600 232.679,233.229 232.064,232.776 231.544 L 231.953 230.600 232.655 231.800 M164.224 232.039 C 164.317 232.189,165.012 232.384,165.768 232.472 C 166.525 232.561,167.068 232.510,166.976 232.361 C 166.883 232.211,166.188 232.016,165.432 231.928 C 164.675 231.839,164.132 231.890,164.224 232.039 M195.331 234.200 C 195.333 235.740,195.405 236.321,195.492 235.491 C 195.579 234.661,195.577 233.401,195.489 232.691 C 195.400 231.981,195.329 232.660,195.331 234.200 M238.878 239.876 C 238.835 244.098,238.935 247.637,239.100 247.739 C 239.265 247.842,239.353 245.557,239.296 242.663 C 239.107 233.095,238.958 232.096,238.878 239.876 M181.076 233.246 C 180.677 233.477,180.083 233.564,179.755 233.438 C 179.418 233.309,179.265 233.381,179.403 233.605 C 179.751 234.167,180.523 234.094,181.424 233.413 C 182.326 232.730,182.126 232.634,181.076 233.246 M229.063 234.497 C 229.359 236.341,228.749 237.179,227.051 237.260 C 225.870 237.317,225.861 237.329,226.880 237.485 C 229.146 237.830,230.481 235.601,229.205 233.600 C 228.943 233.188,228.898 233.469,229.063 234.497 M187.181 235.200 C 187.005 236.953,186.958 237.006,185.400 237.243 L 183.800 237.486 185.251 237.543 C 187.073 237.615,187.693 236.896,187.507 234.928 L 187.363 233.400 187.181 235.200 M261.844 234.600 C 262.173 236.071,262.402 236.390,262.394 235.367 C 262.391 234.945,262.205 234.330,261.982 234.000 C 261.685 233.562,261.648 233.724,261.844 234.600 M255.443 234.633 C 254.817 236.263,255.071 236.403,258.500 236.320 L 261.800 236.239 258.661 236.102 C 255.553 235.966,255.524 235.955,255.769 234.982 C 256.043 233.888,255.820 233.649,255.443 234.633 M250.629 235.829 C 250.481 236.415,250.438 236.972,250.532 237.066 C 250.627 237.160,250.824 236.758,250.971 236.171 C 251.119 235.585,251.162 235.028,251.068 234.934 C 250.973 234.840,250.776 235.242,250.629 235.829 M266.501 236.600 C 266.505 237.480,266.587 237.793,266.683 237.295 C 266.779 236.798,266.775 236.078,266.675 235.695 C 266.575 235.313,266.496 235.720,266.501 236.600 M243.398 236.900 C 243.097 237.751,242.983 247.980,243.278 247.681 C 243.536 247.420,243.936 236.398,243.687 236.399 C 243.626 236.400,243.495 236.625,243.398 236.900 M143.212 238.051 C 143.198 238.803,144.147 239.719,144.537 239.330 C 144.940 238.926,144.849 238.322,144.425 238.585 C 144.218 238.712,143.864 238.498,143.637 238.108 C 143.278 237.492,143.223 237.485,143.212 238.051 M178.806 239.794 C 178.063 240.561,177.532 241.237,177.627 241.298 C 177.722 241.358,178.456 240.731,179.259 239.904 C 180.061 239.077,180.591 238.400,180.437 238.400 C 180.283 238.400,179.549 239.027,178.806 239.794 M184.421 240.368 C 184.032 240.621,184.383 240.673,185.487 240.524 C 186.932 240.331,187.154 240.407,187.319 241.158 C 187.494 241.956,187.503 241.953,187.453 241.106 C 187.395 240.106,185.523 239.651,184.421 240.368 M226.200 240.419 C 225.641 240.672,225.872 240.707,226.964 240.534 C 228.214 240.337,228.647 240.439,229.118 241.043 C 229.669 241.750,229.691 241.751,229.454 241.067 C 229.314 240.664,229.200 240.259,229.200 240.167 C 229.200 239.865,227.018 240.048,226.200 240.419 M197.360 242.600 C 197.675 243.260,198.616 244.430,199.452 245.200 L 200.972 246.600 199.386 244.774 C 198.514 243.769,197.572 242.599,197.294 242.174 C 197.016 241.748,197.046 241.940,197.360 242.600 M214.203 242.795 C 214.067 243.015,214.213 243.093,214.531 242.971 C 215.282 242.683,216.906 244.752,216.662 245.686 C 216.559 246.079,216.638 246.300,216.837 246.177 C 217.468 245.787,217.234 244.902,216.164 243.631 C 215.078 242.339,214.608 242.139,214.203 242.795 M257.106 244.355 C 258.440 245.626,260.684 246.042,261.934 245.249 C 262.247 245.051,261.661 244.988,260.516 245.098 C 258.838 245.260,258.370 245.133,257.182 244.198 L 255.800 243.109 257.106 244.355 M172.252 244.885 C 172.360 245.058,173.142 245.200,173.990 245.200 C 174.839 245.200,175.625 245.385,175.737 245.610 C 175.849 245.836,175.894 245.790,175.838 245.510 C 175.781 245.226,174.922 244.905,173.897 244.785 C 172.885 244.666,172.145 244.711,172.252 244.885 M219.212 245.078 C 219.205 245.340,219.605 245.979,220.100 246.497 C 220.595 247.015,220.800 247.160,220.556 246.820 C 220.312 246.479,219.912 245.840,219.668 245.400 C 219.424 244.960,219.219 244.815,219.212 245.078 M253.087 246.009 C 253.795 246.751,254.442 247.278,254.525 247.179 C 254.608 247.081,254.029 246.473,253.238 245.829 L 251.800 244.658 253.087 246.009 M167.212 245.478 C 167.205 245.740,167.605 246.379,168.100 246.897 C 168.595 247.415,168.800 247.560,168.556 247.220 C 168.312 246.879,167.912 246.240,167.668 245.800 C 167.424 245.360,167.219 245.215,167.212 245.478 M236.800 246.672 C 236.800 246.895,236.395 247.273,235.900 247.512 C 235.405 247.751,235.191 247.958,235.424 247.973 C 236.096 248.016,237.430 246.896,237.099 246.566 C 236.935 246.401,236.800 246.449,236.800 246.672 M170.905 248.287 C 171.514 248.379,172.414 248.377,172.905 248.282 C 173.397 248.187,172.900 248.111,171.800 248.114 C 170.700 248.117,170.297 248.195,170.905 248.287 M181.705 248.287 C 182.314 248.379,183.214 248.377,183.705 248.282 C 184.197 248.187,183.700 248.111,182.600 248.114 C 181.500 248.117,181.097 248.195,181.705 248.287 M206.900 248.291 C 207.725 248.378,209.075 248.378,209.900 248.291 C 210.725 248.205,210.050 248.134,208.400 248.134 C 206.750 248.134,206.075 248.205,206.900 248.291 M223.705 248.287 C 224.314 248.379,225.214 248.377,225.705 248.282 C 226.197 248.187,225.700 248.111,224.600 248.114 C 223.500 248.117,223.097 248.195,223.705 248.287 M258.707 248.290 C 259.426 248.379,260.506 248.377,261.107 248.286 C 261.708 248.195,261.120 248.122,259.800 248.124 C 258.480 248.126,257.988 248.201,258.707 248.290 M178.540 260.306 C 178.286 260.468,179.073 260.610,180.288 260.622 C 181.620 260.635,182.199 260.527,181.748 260.350 C 180.759 259.962,179.115 259.939,178.540 260.306 M210.540 260.306 C 210.286 260.468,211.073 260.610,212.288 260.622 C 213.620 260.635,214.199 260.527,213.748 260.350 C 212.759 259.962,211.115 259.939,210.540 260.306 M137.689 266.095 C 137.788 271.149,137.879 271.805,138.500 271.924 C 139.128 272.045,139.200 271.660,139.200 268.206 C 139.200 265.739,139.344 264.442,139.600 264.600 C 139.820 264.736,140.000 264.667,140.000 264.447 C 140.000 263.740,139.292 263.583,139.042 264.235 C 138.909 264.582,138.800 266.381,138.800 268.233 C 138.800 270.211,138.635 271.600,138.400 271.600 C 138.153 271.600,138.000 269.518,138.000 266.153 L 138.000 260.707 139.000 260.898 C 139.550 261.003,140.000 260.934,140.000 260.745 C 140.000 260.555,139.455 260.400,138.789 260.400 L 137.578 260.400 137.689 266.095 M147.921 265.999 C 148.002 269.730,147.902 271.600,147.621 271.600 C 147.354 271.600,147.200 270.134,147.200 267.600 C 147.200 265.400,147.065 263.600,146.900 263.600 C 146.600 263.600,146.695 270.558,147.009 271.500 C 147.100 271.775,147.451 272.000,147.787 272.000 C 148.309 272.000,148.400 271.142,148.400 266.200 C 148.400 263.010,148.265 260.400,148.100 260.399 C 147.935 260.399,147.854 262.919,147.921 265.999 M154.800 260.777 L 157.400 261.037 155.200 261.256 L 153.000 261.475 155.305 261.437 C 158.648 261.383,158.380 260.609,155.000 260.559 L 152.200 260.518 154.800 260.777 M162.105 260.687 C 162.714 260.779,163.614 260.777,164.105 260.682 C 164.597 260.587,164.100 260.511,163.000 260.514 C 161.900 260.517,161.497 260.595,162.105 260.687 M171.689 260.650 C 172.291 260.829,172.395 261.571,172.507 266.527 L 172.635 272.200 172.618 266.405 C 172.601 260.911,172.559 260.606,171.800 260.528 C 171.198 260.466,171.171 260.497,171.689 260.650 M188.203 260.795 C 188.058 261.029,188.235 261.085,188.637 260.930 C 189.064 260.767,189.517 260.945,189.858 261.411 C 190.156 261.819,190.400 261.975,190.400 261.756 C 190.400 260.726,188.704 259.984,188.203 260.795 M195.200 266.200 C 195.200 269.390,195.335 272.000,195.500 272.000 C 195.665 272.000,195.800 269.390,195.800 266.200 C 195.800 263.010,195.665 260.400,195.500 260.400 C 195.335 260.400,195.200 263.010,195.200 266.200 M217.467 260.667 C 217.098 261.036,217.129 271.509,217.500 271.738 C 217.665 271.840,217.800 269.331,217.800 266.162 C 217.800 262.993,217.785 260.400,217.767 260.400 C 217.748 260.400,217.613 260.520,217.467 260.667 M221.000 260.788 L 223.800 261.034 221.600 261.243 L 219.400 261.452 221.700 261.526 C 223.511 261.584,224.000 261.472,224.000 261.000 C 224.000 260.515,223.443 260.414,221.100 260.471 L 218.200 260.541 221.000 260.788 M226.175 260.921 C 225.653 262.281,226.200 271.800,226.800 271.800 C 227.289 271.800,227.421 271.001,227.514 267.463 C 227.620 263.431,227.676 263.163,228.314 263.663 C 228.933 264.147,228.946 264.131,228.451 263.500 C 227.414 262.177,227.200 262.810,227.200 267.200 C 227.200 270.014,227.048 271.600,226.779 271.600 C 226.498 271.600,226.398 269.730,226.479 265.999 C 226.599 260.461,226.565 259.904,226.175 260.921 M233.600 260.824 C 233.600 261.057,233.774 261.140,233.986 261.008 C 234.223 260.862,234.423 262.443,234.501 265.085 L 234.630 269.400 234.715 264.900 C 234.786 261.129,234.703 260.400,234.200 260.400 C 233.870 260.400,233.600 260.591,233.600 260.824 M236.800 261.000 C 236.800 261.438,237.205 261.583,238.300 261.536 L 239.800 261.472 238.400 261.259 L 237.000 261.047 238.800 260.783 L 240.600 260.520 238.700 260.460 C 237.251 260.414,236.800 260.542,236.800 261.000 M242.800 260.783 L 244.600 261.047 243.200 261.259 L 241.800 261.472 243.300 261.536 C 244.395 261.583,244.800 261.438,244.800 261.000 C 244.800 260.542,244.349 260.414,242.900 260.460 L 241.000 260.520 242.800 260.783 M250.600 260.788 L 253.400 261.036 251.000 261.254 L 248.600 261.472 250.968 261.436 C 252.481 261.413,253.396 261.219,253.502 260.900 C 253.625 260.526,252.925 260.418,250.733 260.471 L 247.800 260.541 250.600 260.788 M257.700 260.687 C 258.305 260.778,259.295 260.778,259.900 260.687 C 260.505 260.595,260.010 260.520,258.800 260.520 C 257.590 260.520,257.095 260.595,257.700 260.687 M164.833 261.700 C 164.925 261.755,165.540 262.250,166.200 262.800 L 167.400 263.800 166.430 262.700 C 165.897 262.095,165.282 261.600,165.064 261.600 C 164.845 261.600,164.742 261.645,164.833 261.700 M218.846 263.500 C 218.821 264.655,218.944 265.600,219.120 265.600 C 219.296 265.600,219.375 264.925,219.297 264.100 C 219.052 261.528,218.895 261.318,218.846 263.500 M248.046 263.276 C 248.021 264.308,248.142 265.241,248.316 265.348 C 248.490 265.456,248.570 264.882,248.493 264.072 C 248.259 261.598,248.095 261.307,248.046 263.276 M256.920 263.600 C 256.920 264.810,256.995 265.305,257.087 264.700 C 257.178 264.095,257.178 263.105,257.087 262.500 C 256.995 261.895,256.920 262.390,256.920 263.600 M260.300 261.999 C 261.033 262.822,260.915 264.693,260.100 265.168 C 259.715 265.392,259.589 265.581,259.820 265.588 C 261.192 265.628,261.708 262.882,260.500 261.968 C 259.904 261.518,259.875 261.522,260.300 261.999 M152.501 263.400 C 152.505 264.280,152.587 264.593,152.683 264.095 C 152.779 263.598,152.775 262.878,152.675 262.495 C 152.575 262.113,152.496 262.520,152.501 263.400 M161.279 265.867 C 161.177 271.120,162.330 272.629,165.103 270.869 C 165.391 270.685,164.794 270.560,163.703 270.575 L 161.800 270.600 161.579 266.200 L 161.358 261.800 161.279 265.867 M246.870 266.900 C 246.831 269.705,246.935 272.000,247.100 272.001 C 247.265 272.001,247.352 270.426,247.293 268.501 C 247.103 262.287,246.941 261.676,246.870 266.900 M188.388 263.414 C 187.712 264.229,188.029 264.460,188.925 263.806 C 189.322 263.515,189.477 263.172,189.269 263.043 C 189.061 262.914,188.665 263.081,188.388 263.414 M176.193 265.300 C 176.059 266.015,176.103 267.012,176.289 267.515 C 176.544 268.202,176.629 267.879,176.629 266.215 C 176.629 263.670,176.535 263.473,176.193 265.300 M208.193 265.300 C 208.059 266.015,208.103 267.012,208.289 267.515 C 208.544 268.202,208.629 267.879,208.629 266.215 C 208.629 263.670,208.535 263.473,208.193 265.300 M167.314 266.200 C 167.317 267.300,167.395 267.703,167.487 267.095 C 167.579 266.486,167.577 265.586,167.482 265.095 C 167.387 264.603,167.311 265.100,167.314 266.200 M187.654 266.100 C 187.605 267.101,187.726 267.200,189.000 267.200 C 190.199 267.200,190.393 267.071,190.354 266.300 C 190.319 265.623,190.262 265.573,190.124 266.100 C 189.845 267.170,188.097 267.014,187.882 265.900 C 187.734 265.128,187.701 265.157,187.654 266.100 M218.880 268.700 L 219.000 271.000 221.302 271.033 L 223.604 271.066 221.366 270.912 L 219.128 270.758 219.264 268.578 C 219.339 267.380,219.256 266.399,219.080 266.399 C 218.904 266.400,218.814 267.435,218.880 268.700 M248.162 266.954 C 248.045 267.259,248.006 268.294,248.075 269.254 L 248.200 271.000 250.590 271.123 C 251.905 271.190,253.134 271.460,253.321 271.723 C 253.559 272.057,253.613 272.020,253.499 271.600 C 253.387 271.184,252.613 270.939,250.969 270.800 L 248.600 270.600 248.474 268.840 C 248.393 267.702,248.534 266.961,248.874 266.746 C 249.291 266.481,249.294 266.411,248.887 266.406 C 248.606 266.403,248.279 266.649,248.162 266.954 M257.340 266.706 C 257.087 266.868,256.817 268.108,256.740 269.463 C 256.663 270.818,256.735 271.842,256.900 271.739 C 257.065 271.637,257.200 270.568,257.200 269.364 C 257.200 266.849,257.878 266.236,259.315 267.451 L 260.200 268.200 259.438 267.300 C 258.643 266.361,258.114 266.211,257.340 266.706 M152.460 268.467 C 152.358 270.954,152.611 271.200,155.266 271.200 C 156.752 271.200,157.554 271.350,157.400 271.600 C 157.264 271.820,157.358 272.000,157.610 272.000 C 159.258 272.000,157.325 270.965,155.369 270.800 L 153.000 270.600 152.760 268.800 C 152.528 267.060,152.518 267.049,152.460 268.467 M261.400 268.400 C 261.741 269.060,262.111 269.600,262.221 269.600 C 262.331 269.600,262.141 269.060,261.800 268.400 C 261.459 267.740,261.089 267.200,260.979 267.200 C 260.869 267.200,261.059 267.740,261.400 268.400 M143.412 267.980 C 143.265 268.218,142.977 268.309,142.772 268.183 C 142.568 268.056,142.400 268.143,142.400 268.376 C 142.400 268.609,142.659 268.800,142.976 268.800 C 143.593 268.800,144.212 268.079,143.880 267.747 C 143.770 267.637,143.560 267.742,143.412 267.980 M175.200 269.163 C 175.200 269.528,177.954 272.199,178.098 271.973 C 178.158 271.878,177.531 271.144,176.704 270.341 C 175.877 269.539,175.200 269.009,175.200 269.163 M207.200 269.163 C 207.200 269.528,209.954 272.199,210.098 271.973 C 210.158 271.878,209.531 271.144,208.704 270.341 C 207.877 269.539,207.200 269.009,207.200 269.163 M185.800 270.799 C 185.635 271.321,185.306 271.573,184.964 271.441 C 184.654 271.322,184.400 271.399,184.400 271.613 C 184.400 272.330,185.568 272.008,186.018 271.166 C 186.264 270.707,186.377 270.243,186.269 270.136 C 186.161 270.028,185.950 270.326,185.800 270.799 M178.663 270.900 C 178.899 271.285,181.256 271.279,181.865 270.892 C 182.121 270.729,181.464 270.597,180.405 270.598 C 179.346 270.599,178.562 270.735,178.663 270.900 M197.163 270.924 C 197.342 271.103,198.369 271.190,199.444 271.118 L 201.400 270.987 199.119 270.794 C 197.864 270.687,196.984 270.746,197.163 270.924 M210.663 270.900 C 210.899 271.285,213.256 271.279,213.865 270.892 C 214.121 270.729,213.464 270.597,212.405 270.598 C 211.346 270.599,210.562 270.735,210.663 270.900 " stroke="none" fill="#8c9ccc" fill-rule="evenodd" data-index="4"></path></g></svg>